<?xml version="1.0" encoding="UTF-8" standalone="no"?>
<svg
   xmlns:dc="http://purl.org/dc/elements/1.1/"
   xmlns:cc="http://creativecommons.org/ns#"
   xmlns:rdf="http://www.w3.org/1999/02/22-rdf-syntax-ns#"
   xmlns:svg="http://www.w3.org/2000/svg"
   xmlns="http://www.w3.org/2000/svg"
   version="1.1"
   id="svg2"
   viewBox="0 0 221.00001 10"
   height="10"
   width="221">
  <defs
     id="defs4" />
  <metadata
     id="metadata7">
    <rdf:RDF>
      <cc:Work
         rdf:about="">
        <dc:format>image/svg+xml</dc:format>
        <dc:type
           rdf:resource="http://purl.org/dc/dcmitype/StillImage" />
        <dc:title></dc:title>
      </cc:Work>
    </rdf:RDF>
  </metadata>
  <g
     transform="translate(135.67761,-336.00802)"
     id="layer1">
    <text
       id="text4136"
       y="366.46863"
       x="-131.31982"
       style="font-style:normal;font-weight:normal;font-size:40px;line-height:125%;font-family:Sans;letter-spacing:13.97000027px;word-spacing:0px;fill:#000000;fill-opacity:1;stroke:none;stroke-width:1px;stroke-linecap:butt;stroke-linejoin:miter;stroke-opacity:1"
       xml:space="preserve"><tspan
         style="fill:#ffffff"
         y="366.46863"
         x="-131.31982"
         id="tspan4138" /></text>
    <g
       id="text4140"
       style="font-style:normal;font-weight:normal;font-size:40px;line-height:125%;font-family:Sans;letter-spacing:13.97000027px;word-spacing:0px;fill:#000000;fill-opacity:1;stroke:none;stroke-width:0.20000002;stroke-linecap:butt;stroke-linejoin:miter;stroke-miterlimit:4;stroke-dasharray:none;stroke-opacity:1">
      <path
         id="path4928"
         style="font-style:normal;font-variant:normal;font-weight:800;font-stretch:normal;font-size:12.5px;line-height:125%;font-family:'Open Sans';-inkscape-font-specification:'Open Sans, Ultra-Bold';text-align:start;letter-spacing:5px;writing-mode:lr-tb;text-anchor:start;fill:#ffffff;stroke-width:0.20000002;stroke-miterlimit:4;stroke-dasharray:none"
         d="m -127.01781,345.50632 -3.16162,0 -3.25928,-6.28662 -0.0549,0 q 0.11597,1.48315 0.11597,2.2644 l 0,4.02222 -2.13623,0 0,-8.92334 3.14941,0 3.24707,6.20117 0.0366,0 q -0.0854,-1.34888 -0.0854,-2.16675 l 0,-4.03442 2.14843,0 0,8.92334 z" />
      <path
         id="path4930"
         style="font-style:normal;font-variant:normal;font-weight:800;font-stretch:normal;font-size:12.5px;line-height:125%;font-family:'Open Sans';-inkscape-font-specification:'Open Sans, Ultra-Bold';text-align:start;letter-spacing:5px;writing-mode:lr-tb;text-anchor:start;fill:#ffffff;stroke-width:0.20000002;stroke-miterlimit:4;stroke-dasharray:none"
         d="m -114.79124,345.50632 -5.29786,0 0,-8.92334 5.29786,0 0,1.93481 -2.88697,0 0,1.40381 2.67334,0 0,1.93481 -2.67334,0 0,1.68458 2.88697,0 0,1.96533 z" />
      <path
         id="path4932"
         style="font-style:normal;font-variant:normal;font-weight:800;font-stretch:normal;font-size:12.5px;line-height:125%;font-family:'Open Sans';-inkscape-font-specification:'Open Sans, Ultra-Bold';text-align:start;letter-spacing:5px;writing-mode:lr-tb;text-anchor:start;fill:#ffffff;stroke-width:0.20000002;stroke-miterlimit:4;stroke-dasharray:none"
         d="m -98.591293,345.50632 -2.850347,0 -0.85449,-3.88794 q -0.061,-0.24414 -0.19531,-0.97046 -0.12817,-0.72632 -0.18921,-1.2146 -0.0488,0.39673 -0.15869,0.98877 -0.10986,0.58594 -0.21973,1.08032 -0.10376,0.49439 -0.88501,4.00391 l -2.85034,0 -2.20947,-8.92334 2.32544,0 0.97046,4.47387 q 0.32959,1.48316 0.45166,2.36206 0.0793,-0.62255 0.28076,-1.69067 0.20752,-1.06811 0.38452,-1.77002 l 0.78735,-3.37524 2.23389,0 0.76294,3.37524 q 0.19531,0.81177 0.39673,1.87378 0.20142,1.06201 0.26855,1.58691 0.0793,-0.67749 0.433353,-2.34985 l 0.98877,-4.48608 2.325439,0 -2.197265,8.92334 z" />
      <path
         id="path4934"
         style="font-style:normal;font-variant:normal;font-weight:800;font-stretch:normal;font-size:12.5px;line-height:125%;font-family:'Open Sans';-inkscape-font-specification:'Open Sans, Ultra-Bold';text-align:start;letter-spacing:5px;writing-mode:lr-tb;text-anchor:start;fill:#ffffff;stroke-width:0.20000002;stroke-miterlimit:4;stroke-dasharray:none"
         d="m -86.267075,338.43234 q -0.860595,0 -1.342773,0.70801 -0.482178,0.7019 -0.482178,1.94092 0,2.57568 1.959229,2.57568 0.592041,0 1.147461,-0.16479 0.55542,-0.1648 1.116943,-0.39673 l 0,2.03857 q -1.116943,0.49439 -2.526855,0.49439 -2.020264,0 -3.100586,-1.17188 -1.074219,-1.17187 -1.074219,-3.38745 0,-1.3855 0.518799,-2.4353 0.524902,-1.04981 1.501465,-1.61133 0.982666,-0.56763 2.307128,-0.56763 1.446534,0 2.764893,0.62867 l -0.738525,1.89819 q -0.494385,-0.23193 -0.98877,-0.39063 -0.494385,-0.15869 -1.062012,-0.15869 z" />
      <path
         id="path4936"
         style="font-style:normal;font-variant:normal;font-weight:800;font-stretch:normal;font-size:12.5px;line-height:125%;font-family:'Open Sans';-inkscape-font-specification:'Open Sans, Ultra-Bold';text-align:start;letter-spacing:5px;writing-mode:lr-tb;text-anchor:start;fill:#ffffff;stroke-width:0.20000002;stroke-miterlimit:4;stroke-dasharray:none"
         d="m -71.660141,345.50632 -0.439453,-1.67237 -2.89917,0 -0.45166,1.67237 -2.648926,0 2.911377,-8.95996 3.216553,0 2.947998,8.95996 -2.636719,0 z m -0.939941,-3.64991 -0.384522,-1.46484 q -0.134277,-0.48828 -0.32959,-1.26343 -0.189209,-0.77514 -0.250244,-1.11084 -0.05493,0.31128 -0.219726,1.02539 -0.158692,0.71412 -0.714112,2.81372 l 1.898194,0 z" />
      <path
         id="path4938"
         style="font-style:normal;font-variant:normal;font-weight:800;font-stretch:normal;font-size:12.5px;line-height:125%;font-family:'Open Sans';-inkscape-font-specification:'Open Sans, Ultra-Bold';text-align:start;letter-spacing:5px;writing-mode:lr-tb;text-anchor:start;fill:#ffffff;stroke-width:0.20000002;stroke-miterlimit:4;stroke-dasharray:none"
         d="m -57.218002,342.79636 q 0,0.83007 -0.421143,1.47705 -0.421142,0.64087 -1.2146,1.00097 -0.793457,0.35401 -1.861572,0.35401 -0.891113,0 -1.495361,-0.12207 -0.604248,-0.12818 -1.257324,-0.43946 l 0,-2.14843 q 0.689697,0.354 1.434326,0.55542 0.744629,0.19531 1.367187,0.19531 0.53711,0 0.787354,-0.18311 0.250244,-0.18921 0.250244,-0.48217 0,-0.18311 -0.10376,-0.31739 -0.09766,-0.14038 -0.323486,-0.28076 -0.219727,-0.14038 -1.184082,-0.57373 -0.872803,-0.39673 -1.312256,-0.76904 -0.43335,-0.37232 -0.646973,-0.85449 -0.207519,-0.48218 -0.207519,-1.14136 0,-1.23291 0.897217,-1.92261 0.897216,-0.6897 2.46582,-0.6897 1.385498,0 2.825928,0.64087 l -0.738526,1.86157 q -1.25122,-0.57373 -2.160644,-0.57373 -0.469971,0 -0.683594,0.1648 -0.213623,0.16479 -0.213623,0.40893 0,0.26246 0.268555,0.46998 0.274658,0.20752 1.47705,0.75683 1.153565,0.5188 1.599122,1.11694 0.45166,0.59205 0.45166,1.49537 z" />
      <path
         id="path4940"
         style="font-style:normal;font-variant:normal;font-weight:800;font-stretch:normal;font-size:12.5px;line-height:125%;font-family:'Open Sans';-inkscape-font-specification:'Open Sans, Ultra-Bold';text-align:start;letter-spacing:5px;writing-mode:lr-tb;text-anchor:start;fill:#ffffff;stroke-width:0.20000002;stroke-miterlimit:4;stroke-dasharray:none"
         d="m -46.889633,345.50632 -2.410889,0 0,-6.95191 -2.178955,0 0,-1.97143 6.762695,0 0,1.97143 -2.172851,0 0,6.95191 z" />
      <path
         id="path4942"
         style="font-style:normal;font-variant:normal;font-weight:800;font-stretch:normal;font-size:12.5px;line-height:125%;font-family:'Open Sans';-inkscape-font-specification:'Open Sans, Ultra-Bold';text-align:start;letter-spacing:5px;writing-mode:lr-tb;text-anchor:start;fill:#ffffff;stroke-width:0.20000002;stroke-miterlimit:4;stroke-dasharray:none"
         d="m -38.42894,345.50632 0,-8.92334 2.410889,0 0,6.97632 3.436279,0 0,1.94702 -5.847168,0 z" />
      <path
         id="path4944"
         style="font-style:normal;font-variant:normal;font-weight:800;font-stretch:normal;font-size:12.5px;line-height:125%;font-family:'Open Sans';-inkscape-font-specification:'Open Sans, Ultra-Bold';text-align:start;letter-spacing:5px;writing-mode:lr-tb;text-anchor:start;fill:#ffffff;stroke-width:0.20000002;stroke-miterlimit:4;stroke-dasharray:none"
         d="m -20.855698,345.50632 -5.297851,0 0,-8.92334 5.297851,0 0,1.93481 -2.886963,0 0,1.40381 2.67334,0 0,1.93481 -2.67334,0 0,1.68458 2.886963,0 0,1.96533 z" />
      <path
         id="path4946"
         style="font-style:normal;font-variant:normal;font-weight:800;font-stretch:normal;font-size:12.5px;line-height:125%;font-family:'Open Sans';-inkscape-font-specification:'Open Sans, Ultra-Bold';text-align:start;letter-spacing:5px;writing-mode:lr-tb;text-anchor:start;fill:#ffffff;stroke-width:0.20000002;stroke-miterlimit:4;stroke-dasharray:none"
         d="m -7.7014008,338.45065 0,-0.57373 -3.9062502,0 0,0.57373 3.9062502,0 z m 0.4516602,5.96314 0,-0.67749 -4.8095704,0 0,0.67749 4.8095704,0 z m -3.2714844,-8.02613 1.6906739,0 0,0.94605 1.0437011,0 0,-0.94605 1.6479492,0 0,0.98877 -0.7019043,0 0,0.87891 -0.5615234,0.91553 0,3.57055 0.5615234,0.90943 0,0.8728 0.7019043,0 0,0.99487 -7.0373532,0 0,-0.99487 0.701904,0 0,-0.8728 0.567627,-0.92774 0.0061,0 0,-3.54614 -0.0061,0 -0.567627,-0.92163 0,-0.87891 -0.701904,0 0,-0.98877 1.617431,0 0,0.94605 1.037598,0 0,-0.94605 z m 4.0466309,8.78907 0,-0.3357 -6.3598629,0 0,0.3357 6.3598629,0 z" />
      <path
         id="path4948"
         style="font-style:normal;font-variant:normal;font-weight:normal;font-stretch:normal;font-size:12.50000095px;line-height:125%;font-family:'Open Sans';-inkscape-font-specification:'Open Sans, Normal';text-align:start;letter-spacing:0px;writing-mode:lr-tb;text-anchor:start;fill:#ffffff;fill-opacity:1;stroke:none;stroke-width:0.20000002;stroke-miterlimit:4;stroke-dasharray:none;stroke-opacity:0.39215686"
         d="m 2.1753083,336.58298 2.5207522,0 q 1.7761231,0 2.5695802,0.531 0.7934571,0.53101 0.7934571,1.67847 0,0.79346 -0.4455566,1.31226 -0.4394532,0.51269 -1.2878419,0.66528 l 0,0.061 q 2.0324708,0.3479 2.0324708,2.13623 0,1.19629 -0.8117676,1.86768 -0.8056641,0.67139 -2.258301,0.67139 l -3.1127932,0 0,-8.92334 z m 1.0375978,3.8208 1.7089845,0 q 1.0986329,0 1.5808106,-0.3418 0.4821778,-0.3479 0.4821778,-1.16577 0,-0.75073 -0.5371094,-1.08032 -0.5371094,-0.3357 -1.7089845,-0.3357 l -1.525879,0 0,2.92359 z m 0,0.8789 0,3.33863 1.8615724,0 q 1.0803223,0 1.6235352,-0.41504 0.5493165,-0.42114 0.5493165,-1.31226 0,-0.83008 -0.5615235,-1.2207 -0.55542,-0.39063 -1.6967775,-0.39063 l -1.7761231,0 z" />
      <path
         id="path4950"
         style="font-style:normal;font-variant:normal;font-weight:normal;font-stretch:normal;font-size:12.50000095px;line-height:125%;font-family:'Open Sans';-inkscape-font-specification:'Open Sans, Normal';text-align:start;letter-spacing:0px;writing-mode:lr-tb;text-anchor:start;fill:#ffffff;fill-opacity:1;stroke:none;stroke-width:0.20000002;stroke-miterlimit:4;stroke-dasharray:none;stroke-opacity:0.39215686"
         d="m 17.019059,336.58298 0,5.77392 q 0,1.52588 -0.921631,2.39868 -0.921631,0.87281 -2.532959,0.87281 -1.611329,0 -2.496338,-0.87891 -0.878907,-0.87891 -0.878907,-2.41699 l 0,-5.74951 1.037598,0 0,5.82275 q 0,1.11694 0.610352,1.71509 0.610351,0.59814 1.794433,0.59814 1.129151,0 1.739502,-0.59814 0.610352,-0.60425 0.610352,-1.7273 l 0,-5.81054 1.037598,0 z" />
      <path
         id="path4952"
         style="font-style:normal;font-variant:normal;font-weight:normal;font-stretch:normal;font-size:12.50000095px;line-height:125%;font-family:'Open Sans';-inkscape-font-specification:'Open Sans, Normal';text-align:start;letter-spacing:0px;writing-mode:lr-tb;text-anchor:start;fill:#ffffff;fill-opacity:1;stroke:none;stroke-width:0.20000002;stroke-miterlimit:4;stroke-dasharray:none;stroke-opacity:0.39215686"
         d="m 19.387222,345.50632 0,-8.92334 1.037598,0 0,8.92334 -1.037598,0 z" />
      <path
         id="path4954"
         style="font-style:normal;font-variant:normal;font-weight:normal;font-stretch:normal;font-size:12.50000095px;line-height:125%;font-family:'Open Sans';-inkscape-font-specification:'Open Sans, Normal';text-align:start;letter-spacing:0px;writing-mode:lr-tb;text-anchor:start;fill:#ffffff;fill-opacity:1;stroke:none;stroke-width:0.20000002;stroke-miterlimit:4;stroke-dasharray:none;stroke-opacity:0.39215686"
         d="m 22.878433,345.50632 0,-8.92334 1.037598,0 0,7.9834 3.936768,0 0,0.93994 -4.974366,0 z" />
      <path
         id="path4956"
         style="font-style:normal;font-variant:normal;font-weight:normal;font-stretch:normal;font-size:12.50000095px;line-height:125%;font-family:'Open Sans';-inkscape-font-specification:'Open Sans, Normal';text-align:start;letter-spacing:0px;writing-mode:lr-tb;text-anchor:start;fill:#ffffff;fill-opacity:1;stroke:none;stroke-width:0.20000002;stroke-miterlimit:4;stroke-dasharray:none;stroke-opacity:0.39215686"
         d="m 36.495377,340.9592 q 0,2.20947 -1.202392,3.38135 -1.19629,1.16577 -3.448487,1.16577 l -2.471924,0 0,-8.92334 2.734375,0 q 2.081299,0 3.234864,1.15356 1.153564,1.15357 1.153564,3.22266 z m -1.098633,0.0366 q 0,-1.74561 -0.878906,-2.63062 -0.872803,-0.88501 -2.600098,-0.88501 l -1.507568,0 0,7.12891 1.263428,0 q 1.855468,0 2.789306,-0.90942 0.933838,-0.91553 0.933838,-2.70386 z" />
      <path
         id="path4958"
         style="font-style:normal;font-variant:normal;font-weight:normal;font-stretch:normal;font-size:12.50000095px;line-height:125%;font-family:'Open Sans';-inkscape-font-specification:'Open Sans, Normal';text-align:start;letter-spacing:0px;writing-mode:lr-tb;text-anchor:start;fill:#ffffff;fill-opacity:1;stroke:none;stroke-width:0.20000002;stroke-miterlimit:4;stroke-dasharray:none;stroke-opacity:0.39215686"
         d="m 46.76149,343.13205 q 0,1.17798 -0.854492,1.83716 -0.854492,0.65918 -2.319336,0.65918 -1.586914,0 -2.441406,-0.40894 l 0,-1.00097 q 0.549316,0.23193 1.196289,0.36621 0.646972,0.13427 1.281738,0.13427 1.037598,0 1.5625,-0.39062 0.524903,-0.39673 0.524903,-1.09863 0,-0.46387 -0.189209,-0.75684 -0.183106,-0.29907 -0.622559,-0.54932 -0.43335,-0.25024 -1.324463,-0.56762 -1.245117,-0.44556 -1.782227,-1.05591 -0.531006,-0.61035 -0.531006,-1.59302 0,-1.03149 0.775147,-1.64185 0.775146,-0.61035 2.050781,-0.61035 1.330567,0 2.44751,0.48828 l -0.323486,0.90332 q -1.104737,-0.46386 -2.148438,-0.46386 -0.823974,0 -1.287842,0.354 -0.463867,0.35401 -0.463867,0.98267 0,0.46386 0.170899,0.76294 0.170898,0.29297 0.57373,0.54321 0.408936,0.24414 1.245117,0.54321 1.403809,0.50049 1.928711,1.07422 0.531006,0.57373 0.531006,1.48926 z" />
      <path
         id="path4960"
         style="font-style:normal;font-variant:normal;font-weight:normal;font-stretch:normal;font-size:12.50000095px;line-height:125%;font-family:'Open Sans';-inkscape-font-specification:'Open Sans, Normal';text-align:start;letter-spacing:0px;writing-mode:lr-tb;text-anchor:start;fill:#ffffff;fill-opacity:1;stroke:none;stroke-width:0.20000002;stroke-miterlimit:4;stroke-dasharray:none;stroke-opacity:0.39215686"
         d="m 50.856949,341.04465 2.380371,-4.46167 1.123047,0 -2.978515,5.46264 0,3.4607 -1.049805,0 0,-3.41187 -2.972413,-5.51147 1.135254,0 2.362061,4.46167 z" />
      <path
         id="path4962"
         style="font-style:normal;font-variant:normal;font-weight:normal;font-stretch:normal;font-size:12.50000095px;line-height:125%;font-family:'Open Sans';-inkscape-font-specification:'Open Sans, Normal';text-align:start;letter-spacing:0px;writing-mode:lr-tb;text-anchor:start;fill:#ffffff;fill-opacity:1;stroke:none;stroke-width:0.20000002;stroke-miterlimit:4;stroke-dasharray:none;stroke-opacity:0.39215686"
         d="m 60.628678,343.13205 q 0,1.17798 -0.854492,1.83716 -0.854493,0.65918 -2.319337,0.65918 -1.586914,0 -2.441406,-0.40894 l 0,-1.00097 q 0.549316,0.23193 1.196289,0.36621 0.646973,0.13427 1.281739,0.13427 1.037597,0 1.5625,-0.39062 0.524902,-0.39673 0.524902,-1.09863 0,-0.46387 -0.189209,-0.75684 -0.183105,-0.29907 -0.622559,-0.54932 -0.433349,-0.25024 -1.324463,-0.56762 -1.245117,-0.44556 -1.782226,-1.05591 -0.531006,-0.61035 -0.531006,-1.59302 0,-1.03149 0.775146,-1.64185 0.775147,-0.61035 2.050782,-0.61035 1.330566,0 2.44751,0.48828 l -0.323487,0.90332 q -1.104736,-0.46386 -2.148437,-0.46386 -0.823975,0 -1.287842,0.354 -0.463867,0.35401 -0.463867,0.98267 0,0.46386 0.170898,0.76294 0.170899,0.29297 0.573731,0.54321 0.408935,0.24414 1.245117,0.54321 1.403809,0.50049 1.928711,1.07422 0.531006,0.57373 0.531006,1.48926 z" />
      <path
         id="path4964"
         style="font-style:normal;font-variant:normal;font-weight:normal;font-stretch:normal;font-size:12.50000095px;line-height:125%;font-family:'Open Sans';-inkscape-font-specification:'Open Sans, Normal';text-align:start;letter-spacing:0px;writing-mode:lr-tb;text-anchor:start;fill:#ffffff;fill-opacity:1;stroke:none;stroke-width:0.20000002;stroke-miterlimit:4;stroke-dasharray:none;stroke-opacity:0.39215686"
         d="m 65.200211,345.50632 -1.037598,0 0,-8.00171 -2.825928,0 0,-0.92163 6.689454,0 0,0.92163 -2.825928,0 0,8.00171 z" />
      <path
         id="path4966"
         style="font-style:normal;font-variant:normal;font-weight:normal;font-stretch:normal;font-size:12.50000095px;line-height:125%;font-family:'Open Sans';-inkscape-font-specification:'Open Sans, Normal';text-align:start;letter-spacing:0px;writing-mode:lr-tb;text-anchor:start;fill:#ffffff;fill-opacity:1;stroke:none;stroke-width:0.20000002;stroke-miterlimit:4;stroke-dasharray:none;stroke-opacity:0.39215686"
         d="m 74.337174,345.50632 -4.974366,0 0,-8.92334 4.974366,0 0,0.92163 -3.936768,0 0,2.87475 3.698731,0 0,0.91553 -3.698731,0 0,3.28369 3.936768,0 0,0.92774 z" />
      <path
         id="path4968"
         style="font-style:normal;font-variant:normal;font-weight:normal;font-stretch:normal;font-size:12.50000095px;line-height:125%;font-family:'Open Sans';-inkscape-font-specification:'Open Sans, Normal';text-align:start;letter-spacing:0px;writing-mode:lr-tb;text-anchor:start;fill:#ffffff;fill-opacity:1;stroke:none;stroke-width:0.20000002;stroke-miterlimit:4;stroke-dasharray:none;stroke-opacity:0.39215686"
         d="m 80.269791,345.50632 -3.027344,-7.91016 -0.04883,0 q 0.08545,0.93994 0.08545,2.23389 l 0,5.67627 -0.958252,0 0,-8.92334 1.5625,0 2.825928,7.36084 0.04883,0 2.850342,-7.36084 1.550293,0 0,8.92334 -1.037597,0 0,-5.74952 q 0,-0.98876 0.08545,-2.14843 l -0.04883,0 -3.051758,7.89795 -0.836182,0 z" />
    </g>
  </g>
</svg>
