<?xml version="1.0" encoding="UTF-8" standalone="no"?>
<svg
   xmlns:dc="http://purl.org/dc/elements/1.1/"
   xmlns:cc="http://creativecommons.org/ns#"
   xmlns:rdf="http://www.w3.org/1999/02/22-rdf-syntax-ns#"
   xmlns:svg="http://www.w3.org/2000/svg"
   xmlns="http://www.w3.org/2000/svg"
   version="1.1"
   id="svg2"
   viewBox="0 0 217.00001 9.9999997"
   height="10"
   width="217">
  <defs
     id="defs4" />
  <metadata
     id="metadata7">
    <rdf:RDF>
      <cc:Work
         rdf:about="">
        <dc:format>image/svg+xml</dc:format>
        <dc:type
           rdf:resource="http://purl.org/dc/dcmitype/StillImage" />
        <dc:title></dc:title>
      </cc:Work>
    </rdf:RDF>
  </metadata>
  <g
     transform="translate(130.35543,-336.38766)"
     id="layer1">
    <text
       id="text4136"
       y="366.46863"
       x="-131.31982"
       style="font-style:normal;font-weight:normal;font-size:40px;line-height:125%;font-family:Sans;letter-spacing:13.97000027px;word-spacing:0px;fill:#000000;fill-opacity:1;stroke:none;stroke-width:1px;stroke-linecap:butt;stroke-linejoin:miter;stroke-opacity:1"
       xml:space="preserve"><tspan
         style="fill:#ffffff"
         y="366.46863"
         x="-131.31982"
         id="tspan4138" /></text>
    <g
       transform="translate(0.17788147,-0.37963988)"
       id="text4140"
       style="font-style:normal;font-weight:normal;font-size:40px;line-height:125%;font-family:Sans;letter-spacing:13.97000027px;word-spacing:0px;fill:#000000;fill-opacity:1;stroke:none;stroke-width:0.20000002;stroke-linecap:butt;stroke-linejoin:miter;stroke-miterlimit:4;stroke-dasharray:none;stroke-opacity:1">
      <path
         id="path4743"
         style="font-style:normal;font-variant:normal;font-weight:800;font-stretch:normal;font-size:12.5px;line-height:125%;font-family:'Open Sans';-inkscape-font-specification:'Open Sans, Ultra-Bold';text-align:start;letter-spacing:5px;writing-mode:lr-tb;text-anchor:start;fill:#ffffff;stroke-width:0.20000002;stroke-miterlimit:4;stroke-dasharray:none"
         d="m -121.85938,346.26559 -3.16162,0 -3.25927,-6.28662 -0.0549,0 q 0.11597,1.48316 0.11597,2.26441 l 0,4.02221 -2.13623,0 0,-8.92334 3.14942,0 3.24707,6.20118 0.0366,0 q -0.0855,-1.34888 -0.0855,-2.16675 l 0,-4.03443 2.14843,0 0,8.92334 z" />
      <path
         id="path4745"
         style="font-style:normal;font-variant:normal;font-weight:800;font-stretch:normal;font-size:12.5px;line-height:125%;font-family:'Open Sans';-inkscape-font-specification:'Open Sans, Ultra-Bold';text-align:start;letter-spacing:5px;writing-mode:lr-tb;text-anchor:start;fill:#ffffff;stroke-width:0.20000002;stroke-miterlimit:4;stroke-dasharray:none"
         d="m -109.63281,346.26559 -5.29785,0 0,-8.92334 5.29785,0 0,1.93482 -2.88697,0 0,1.40381 2.67334,0 0,1.93481 -2.67334,0 0,1.68457 2.88697,0 0,1.96533 z" />
      <path
         id="path4747"
         style="font-style:normal;font-variant:normal;font-weight:800;font-stretch:normal;font-size:12.5px;line-height:125%;font-family:'Open Sans';-inkscape-font-specification:'Open Sans, Ultra-Bold';text-align:start;letter-spacing:5px;writing-mode:lr-tb;text-anchor:start;fill:#ffffff;stroke-width:0.20000002;stroke-miterlimit:4;stroke-dasharray:none"
         d="m -93.432861,346.26559 -2.850342,0 -0.854492,-3.88793 q -0.06104,-0.24415 -0.195313,-0.97046 -0.128174,-0.72632 -0.189209,-1.2146 -0.04883,0.39672 -0.158691,0.98877 -0.109863,0.58593 -0.219727,1.08032 -0.10376,0.49438 -0.88501,4.0039 l -2.850345,0 -2.20947,-8.92334 2.32544,0 0.97046,4.47388 q 0.32959,1.48316 0.45166,2.36206 0.0793,-0.62256 0.280761,-1.69067 0.20752,-1.06812 0.384522,-1.77002 l 0.787353,-3.37525 2.233887,0 0.76294,3.37525 q 0.195312,0.81177 0.396728,1.87378 0.201416,1.06201 0.268555,1.58691 0.07935,-0.67749 0.433349,-2.34985 l 0.98877,-4.48609 2.325439,0 -2.197265,8.92334 z" />
      <path
         id="path4749"
         style="font-style:normal;font-variant:normal;font-weight:800;font-stretch:normal;font-size:12.5px;line-height:125%;font-family:'Open Sans';-inkscape-font-specification:'Open Sans, Ultra-Bold';text-align:start;letter-spacing:5px;writing-mode:lr-tb;text-anchor:start;fill:#ffffff;stroke-width:0.20000002;stroke-miterlimit:4;stroke-dasharray:none"
         d="m -81.108643,339.19162 q -0.860595,0 -1.342773,0.70801 -0.482178,0.7019 -0.482178,1.94092 0,2.57568 1.959229,2.57568 0.592041,0 1.147461,-0.1648 0.55542,-0.16479 1.116943,-0.39672 l 0,2.03857 q -1.116943,0.49438 -2.526855,0.49438 -2.020264,0 -3.100586,-1.17187 -1.074219,-1.17188 -1.074219,-3.38745 0,-1.3855 0.518799,-2.4353 0.524902,-1.04981 1.501465,-1.61133 0.982666,-0.56763 2.307128,-0.56763 1.446534,0 2.764893,0.62866 l -0.738525,1.8982 q -0.494385,-0.23194 -0.98877,-0.39063 -0.494385,-0.15869 -1.062012,-0.15869 z" />
      <path
         id="path4751"
         style="font-style:normal;font-variant:normal;font-weight:800;font-stretch:normal;font-size:12.5px;line-height:125%;font-family:'Open Sans';-inkscape-font-specification:'Open Sans, Ultra-Bold';text-align:start;letter-spacing:5px;writing-mode:lr-tb;text-anchor:start;fill:#ffffff;stroke-width:0.20000002;stroke-miterlimit:4;stroke-dasharray:none"
         d="m -66.501709,346.26559 -0.439453,-1.67236 -2.89917,0 -0.45166,1.67236 -2.648926,0 2.911377,-8.95996 3.216553,0 2.947998,8.95996 -2.636719,0 z m -0.939941,-3.6499 -0.384522,-1.46484 q -0.134277,-0.48828 -0.32959,-1.26343 -0.189209,-0.77515 -0.250244,-1.11084 -0.05493,0.31128 -0.219726,1.02539 -0.158692,0.71411 -0.714112,2.81372 l 1.898194,0 z" />
      <path
         id="path4753"
         style="font-style:normal;font-variant:normal;font-weight:800;font-stretch:normal;font-size:12.5px;line-height:125%;font-family:'Open Sans';-inkscape-font-specification:'Open Sans, Ultra-Bold';text-align:start;letter-spacing:5px;writing-mode:lr-tb;text-anchor:start;fill:#ffffff;stroke-width:0.20000002;stroke-miterlimit:4;stroke-dasharray:none"
         d="m -52.05957,343.55563 q 0,0.83008 -0.421143,1.47705 -0.421142,0.64087 -1.214599,1.00098 -0.793458,0.354 -1.861573,0.354 -0.891113,0 -1.495361,-0.12207 -0.604248,-0.12817 -1.257324,-0.43945 l 0,-2.14844 q 0.689697,0.35401 1.434326,0.55542 0.744629,0.19532 1.367187,0.19532 0.53711,0 0.787354,-0.18311 0.250244,-0.18921 0.250244,-0.48218 0,-0.1831 -0.10376,-0.31738 -0.09766,-0.14038 -0.323486,-0.28076 -0.219727,-0.14038 -1.184082,-0.57373 -0.872803,-0.39673 -1.312256,-0.76904 -0.43335,-0.37232 -0.646973,-0.8545 -0.207519,-0.48217 -0.207519,-1.14135 0,-1.23291 0.897217,-1.92261 0.897216,-0.6897 2.46582,-0.6897 1.385498,0 2.825928,0.64087 l -0.738526,1.86157 q -1.25122,-0.57373 -2.160644,-0.57373 -0.469971,0 -0.683594,0.1648 -0.213623,0.16479 -0.213623,0.40893 0,0.26245 0.268555,0.46997 0.274658,0.20752 1.47705,0.75684 1.153565,0.5188 1.599122,1.11694 0.45166,0.59204 0.45166,1.49536 z" />
      <path
         id="path4755"
         style="font-style:normal;font-variant:normal;font-weight:800;font-stretch:normal;font-size:12.5px;line-height:125%;font-family:'Open Sans';-inkscape-font-specification:'Open Sans, Ultra-Bold';text-align:start;letter-spacing:5px;writing-mode:lr-tb;text-anchor:start;fill:#ffffff;stroke-width:0.20000002;stroke-miterlimit:4;stroke-dasharray:none"
         d="m -41.731201,346.26559 -2.410889,0 0,-6.9519 -2.178955,0 0,-1.97144 6.762695,0 0,1.97144 -2.172851,0 0,6.9519 z" />
      <path
         id="path4757"
         style="font-style:normal;font-variant:normal;font-weight:800;font-stretch:normal;font-size:12.5px;line-height:125%;font-family:'Open Sans';-inkscape-font-specification:'Open Sans, Ultra-Bold';text-align:start;letter-spacing:5px;writing-mode:lr-tb;text-anchor:start;fill:#ffffff;stroke-width:0.20000002;stroke-miterlimit:4;stroke-dasharray:none"
         d="m -26.678711,339.20993 0,-0.57373 -3.90625,0 0,0.57373 3.90625,0 z m 0.45166,5.96314 0,-0.6775 -4.80957,0 0,0.6775 4.80957,0 z m -3.271484,-8.02613 1.690674,0 0,0.94605 1.043701,0 0,-0.94605 1.647949,0 0,0.98877 -0.701904,0 0,0.87891 -0.561524,0.91553 0,3.57055 0.561524,0.90943 0,0.8728 0.701904,0 0,0.99487 -7.037353,0 0,-0.99487 0.701904,0 0,-0.8728 0.567627,-0.92774 0.0061,0 0,-3.54614 -0.0061,0 -0.567627,-0.92163 0,-0.87891 -0.701904,0 0,-0.98877 1.617431,0 0,0.94605 1.037598,0 0,-0.94605 z m 4.046631,8.78906 0,-0.33569 -6.359864,0 0,0.33569 6.359864,0 z" />
      <path
         id="path4759"
         style="font-style:normal;font-variant:normal;font-weight:800;font-stretch:normal;font-size:12.5px;line-height:125%;font-family:'Open Sans';-inkscape-font-specification:'Open Sans, Ultra-Bold';text-align:start;letter-spacing:5px;writing-mode:lr-tb;text-anchor:start;fill:#ffffff;stroke-width:0.20000002;stroke-miterlimit:4;stroke-dasharray:none"
         d="m -11.766602,346.26559 -5.297851,0 0,-8.92334 5.297851,0 0,1.93482 -2.886962,0 0,1.40381 2.673339,0 0,1.93481 -2.673339,0 0,1.68457 2.886962,0 0,1.96533 z" />
      <path
         id="path4761"
         style="font-style:normal;font-variant:normal;font-weight:normal;font-stretch:normal;font-size:12.50000095px;line-height:125%;font-family:'Open Sans';-inkscape-font-specification:'Open Sans, Normal';text-align:start;letter-spacing:0px;writing-mode:lr-tb;text-anchor:start;fill:#ffffff;fill-opacity:1;stroke:none;stroke-width:0.20000002;stroke-miterlimit:4;stroke-dasharray:none;stroke-opacity:0.39215686"
         d="m 3.30542,337.34225 2.5207522,0 q 1.7761231,0 2.5695802,0.53101 0.7934571,0.53101 0.7934571,1.67847 0,0.79345 -0.4455566,1.31225 -0.4394532,0.5127 -1.2878419,0.66529 l 0,0.061 q 2.0324708,0.3479 2.0324708,2.13623 0,1.19629 -0.8117676,1.86768 -0.8056641,0.67138 -2.258301,0.67138 l -3.1127932,0 0,-8.92334 z m 1.0375978,3.82081 1.7089845,0 q 1.0986329,0 1.5808106,-0.3418 0.4821778,-0.3479 0.4821778,-1.16577 0,-0.75074 -0.5371094,-1.08033 -0.5371094,-0.33569 -1.7089845,-0.33569 l -1.525879,0 0,2.92359 z m 0,0.8789 0,3.33862 1.8615724,0 q 1.0803223,0 1.6235352,-0.41503 0.5493165,-0.42115 0.5493165,-1.31226 0,-0.83008 -0.5615235,-1.2207 -0.55542,-0.39063 -1.6967775,-0.39063 l -1.7761231,0 z" />
      <path
         id="path4763"
         style="font-style:normal;font-variant:normal;font-weight:normal;font-stretch:normal;font-size:12.50000095px;line-height:125%;font-family:'Open Sans';-inkscape-font-specification:'Open Sans, Normal';text-align:start;letter-spacing:0px;writing-mode:lr-tb;text-anchor:start;fill:#ffffff;fill-opacity:1;stroke:none;stroke-width:0.20000002;stroke-miterlimit:4;stroke-dasharray:none;stroke-opacity:0.39215686"
         d="m 18.149171,337.34225 0,5.77393 q 0,1.52588 -0.921631,2.39868 -0.921631,0.8728 -2.53296,0.8728 -1.611328,0 -2.496338,-0.8789 -0.878906,-0.87891 -0.878906,-2.41699 l 0,-5.74952 1.037598,0 0,5.82276 q 0,1.11694 0.610351,1.71509 0.610352,0.59814 1.794434,0.59814 1.129151,0 1.739502,-0.59814 0.610352,-0.60425 0.610352,-1.7273 l 0,-5.81055 1.037598,0 z" />
      <path
         id="path4765"
         style="font-style:normal;font-variant:normal;font-weight:normal;font-stretch:normal;font-size:12.50000095px;line-height:125%;font-family:'Open Sans';-inkscape-font-specification:'Open Sans, Normal';text-align:start;letter-spacing:0px;writing-mode:lr-tb;text-anchor:start;fill:#ffffff;fill-opacity:1;stroke:none;stroke-width:0.20000002;stroke-miterlimit:4;stroke-dasharray:none;stroke-opacity:0.39215686"
         d="m 20.517334,346.26559 0,-8.92334 1.037598,0 0,8.92334 -1.037598,0 z" />
      <path
         id="path4767"
         style="font-style:normal;font-variant:normal;font-weight:normal;font-stretch:normal;font-size:12.50000095px;line-height:125%;font-family:'Open Sans';-inkscape-font-specification:'Open Sans, Normal';text-align:start;letter-spacing:0px;writing-mode:lr-tb;text-anchor:start;fill:#ffffff;fill-opacity:1;stroke:none;stroke-width:0.20000002;stroke-miterlimit:4;stroke-dasharray:none;stroke-opacity:0.39215686"
         d="m 24.008545,346.26559 0,-8.92334 1.037598,0 0,7.9834 3.936768,0 0,0.93994 -4.974366,0 z" />
      <path
         id="path4769"
         style="font-style:normal;font-variant:normal;font-weight:normal;font-stretch:normal;font-size:12.50000095px;line-height:125%;font-family:'Open Sans';-inkscape-font-specification:'Open Sans, Normal';text-align:start;letter-spacing:0px;writing-mode:lr-tb;text-anchor:start;fill:#ffffff;fill-opacity:1;stroke:none;stroke-width:0.20000002;stroke-miterlimit:4;stroke-dasharray:none;stroke-opacity:0.39215686"
         d="m 37.625489,341.71847 q 0,2.20948 -1.202393,3.38135 -1.196289,1.16577 -3.448486,1.16577 l -2.471924,0 0,-8.92334 2.734375,0 q 2.081299,0 3.234863,1.15357 1.153565,1.15356 1.153565,3.22265 z m -1.098633,0.0366 q 0,-1.74561 -0.878906,-2.63062 -0.872803,-0.88501 -2.600098,-0.88501 l -1.507569,0 0,7.12891 1.263428,0 q 1.855469,0 2.789307,-0.90943 0.933838,-0.91552 0.933838,-2.70385 z" />
      <path
         id="path4771"
         style="font-style:normal;font-variant:normal;font-weight:normal;font-stretch:normal;font-size:12.50000095px;line-height:125%;font-family:'Open Sans';-inkscape-font-specification:'Open Sans, Normal';text-align:start;letter-spacing:0px;writing-mode:lr-tb;text-anchor:start;fill:#ffffff;fill-opacity:1;stroke:none;stroke-width:0.20000002;stroke-miterlimit:4;stroke-dasharray:none;stroke-opacity:0.39215686"
         d="m 47.891602,343.89133 q 0,1.17798 -0.854492,1.83716 -0.854492,0.65917 -2.319336,0.65917 -1.586915,0 -2.441407,-0.40893 l 0,-1.00098 q 0.549317,0.23194 1.196289,0.36621 0.646973,0.13428 1.281739,0.13428 1.037598,0 1.5625,-0.39062 0.524902,-0.39673 0.524902,-1.09864 0,-0.46386 -0.189209,-0.75683 -0.183105,-0.29908 -0.622558,-0.54932 -0.43335,-0.25024 -1.324463,-0.56763 -1.245118,-0.44555 -1.782227,-1.0559 -0.531006,-0.61036 -0.531006,-1.59302 0,-1.0315 0.775147,-1.64185 0.775146,-0.61035 2.050781,-0.61035 1.330567,0 2.44751,0.48828 l -0.323486,0.90332 q -1.104737,-0.46387 -2.148438,-0.46387 -0.823975,0 -1.287842,0.35401 -0.463867,0.354 -0.463867,0.98266 0,0.46387 0.170898,0.76294 0.170899,0.29297 0.573731,0.54322 0.408935,0.24414 1.245117,0.54321 1.403809,0.50049 1.928711,1.07422 0.531006,0.57373 0.531006,1.48926 z" />
      <path
         id="path4773"
         style="font-style:normal;font-variant:normal;font-weight:normal;font-stretch:normal;font-size:12.50000095px;line-height:125%;font-family:'Open Sans';-inkscape-font-specification:'Open Sans, Normal';text-align:start;letter-spacing:0px;writing-mode:lr-tb;text-anchor:start;fill:#ffffff;fill-opacity:1;stroke:none;stroke-width:0.20000002;stroke-miterlimit:4;stroke-dasharray:none;stroke-opacity:0.39215686"
         d="m 51.987061,341.80392 2.380371,-4.46167 1.123047,0 -2.978516,5.46265 0,3.46069 -1.049805,0 0,-3.41186 -2.972412,-5.51148 1.135254,0 2.362061,4.46167 z" />
      <path
         id="path4775"
         style="font-style:normal;font-variant:normal;font-weight:normal;font-stretch:normal;font-size:12.50000095px;line-height:125%;font-family:'Open Sans';-inkscape-font-specification:'Open Sans, Normal';text-align:start;letter-spacing:0px;writing-mode:lr-tb;text-anchor:start;fill:#ffffff;fill-opacity:1;stroke:none;stroke-width:0.20000002;stroke-miterlimit:4;stroke-dasharray:none;stroke-opacity:0.39215686"
         d="m 61.75879,343.89133 q 0,1.17798 -0.854493,1.83716 -0.854492,0.65917 -2.319336,0.65917 -1.586914,0 -2.441406,-0.40893 l 0,-1.00098 q 0.549316,0.23194 1.196289,0.36621 0.646973,0.13428 1.281738,0.13428 1.037598,0 1.5625,-0.39062 0.524903,-0.39673 0.524903,-1.09864 0,-0.46386 -0.189209,-0.75683 -0.183106,-0.29908 -0.622559,-0.54932 -0.43335,-0.25024 -1.324463,-0.56763 -1.245117,-0.44555 -1.782227,-1.0559 -0.531005,-0.61036 -0.531005,-1.59302 0,-1.0315 0.775146,-1.64185 0.775147,-0.61035 2.050781,-0.61035 1.330567,0 2.44751,0.48828 l -0.323486,0.90332 q -1.104736,-0.46387 -2.148438,-0.46387 -0.823974,0 -1.287841,0.35401 -0.463868,0.354 -0.463868,0.98266 0,0.46387 0.170899,0.76294 0.170898,0.29297 0.57373,0.54322 0.408936,0.24414 1.245118,0.54321 1.403808,0.50049 1.928711,1.07422 0.531006,0.57373 0.531006,1.48926 z" />
      <path
         id="path4777"
         style="font-style:normal;font-variant:normal;font-weight:normal;font-stretch:normal;font-size:12.50000095px;line-height:125%;font-family:'Open Sans';-inkscape-font-specification:'Open Sans, Normal';text-align:start;letter-spacing:0px;writing-mode:lr-tb;text-anchor:start;fill:#ffffff;fill-opacity:1;stroke:none;stroke-width:0.20000002;stroke-miterlimit:4;stroke-dasharray:none;stroke-opacity:0.39215686"
         d="m 66.330323,346.26559 -1.037598,0 0,-8.00171 -2.825928,0 0,-0.92163 6.689454,0 0,0.92163 -2.825928,0 0,8.00171 z" />
      <path
         id="path4779"
         style="font-style:normal;font-variant:normal;font-weight:normal;font-stretch:normal;font-size:12.50000095px;line-height:125%;font-family:'Open Sans';-inkscape-font-specification:'Open Sans, Normal';text-align:start;letter-spacing:0px;writing-mode:lr-tb;text-anchor:start;fill:#ffffff;fill-opacity:1;stroke:none;stroke-width:0.20000002;stroke-miterlimit:4;stroke-dasharray:none;stroke-opacity:0.39215686"
         d="m 75.467286,346.26559 -4.974366,0 0,-8.92334 4.974366,0 0,0.92163 -3.936768,0 0,2.87476 3.698731,0 0,0.91553 -3.698731,0 0,3.28369 3.936768,0 0,0.92773 z" />
      <path
         id="path4781"
         style="font-style:normal;font-variant:normal;font-weight:normal;font-stretch:normal;font-size:12.50000095px;line-height:125%;font-family:'Open Sans';-inkscape-font-specification:'Open Sans, Normal';text-align:start;letter-spacing:0px;writing-mode:lr-tb;text-anchor:start;fill:#ffffff;fill-opacity:1;stroke:none;stroke-width:0.20000002;stroke-miterlimit:4;stroke-dasharray:none;stroke-opacity:0.39215686"
         d="m 81.399903,346.26559 -3.027344,-7.91015 -0.04883,0 q 0.08545,0.93994 0.08545,2.23388 l 0,5.67627 -0.958252,0 0,-8.92334 1.5625,0 2.825928,7.36084 0.04883,0 2.850342,-7.36084 1.550293,0 0,8.92334 -1.037598,0 0,-5.74951 q 0,-0.98877 0.08545,-2.14844 l -0.04883,0 -3.051758,7.89795 -0.836181,0 z" />
    </g>
  </g>
</svg>
