<svg xmlns="http://www.w3.org/2000/svg" height="10" width="221"><g style="line-height:125%" font-size="12.5" font-family="Open Sans" stroke-width=".2" fill="#fff" font-weight="400" letter-spacing="13.97" word-spacing="0"><path style="line-height:125%;-inkscape-font-specification:'Open Sans, Ultra-Bold';text-align:start" d="M8.66 9.498H5.498l-3.26-6.286h-.054Q2.3 4.695 2.3 5.476v4.022H.164V.575h3.15L6.56 6.776h.037Q6.51 5.427 6.51 4.61V.575h2.15v8.923zm12.226 0H15.59V.575h5.297V2.51H18v1.404h2.674v1.934H18v1.685h2.887v1.965zm16.2 0h-2.85l-.855-3.888q-.06-.244-.195-.97-.128-.726-.189-1.215-.049.397-.159.99-.11.585-.22 1.08-.103.494-.884 4.003h-2.85L26.673.575h2.325l.97 4.474q.33 1.483.452 2.362.08-.623.281-1.69.208-1.069.385-1.77l.787-3.376h2.234l.763 3.375q.195.812.396 1.874.202 1.062.269 1.587.08-.678.433-2.35l.99-4.486h2.325l-2.198 8.923zM49.41 2.424q-.86 0-1.342.708-.482.702-.482 1.941 0 2.576 1.959 2.576.592 0 1.147-.165.556-.165 1.117-.397v2.039q-1.117.494-2.527.494-2.02 0-3.1-1.172-1.074-1.171-1.074-3.387 0-1.385.518-2.435.525-1.05 1.502-1.612.982-.567 2.307-.567 1.446 0 2.765.628l-.739 1.899q-.494-.232-.988-.391-.495-.159-1.062-.159zm14.607 7.074l-.439-1.672h-2.9l-.45 1.672h-2.65L60.49.538h3.216l2.948 8.96h-2.637zm-.94-3.65l-.384-1.464q-.134-.489-.33-1.264-.189-.775-.25-1.11-.055.31-.22 1.025-.158.714-.714 2.813h1.899zm15.383.94q0 .83-.422 1.477-.42.641-1.214 1.001-.794.354-1.862.354-.89 0-1.495-.122-.604-.128-1.257-.44V6.91q.69.354 1.434.556.745.195 1.367.195.537 0 .787-.183.25-.19.25-.482 0-.183-.103-.318-.098-.14-.324-.28-.22-.14-1.184-.574-.872-.397-1.312-.77-.433-.371-.647-.854-.207-.482-.207-1.14 0-1.234.897-1.924t2.466-.69q1.385 0 2.826.642l-.739 1.861q-1.251-.574-2.16-.574-.47 0-.684.165-.214.165-.214.41 0 .262.269.47.274.207 1.477.756 1.153.519 1.599 1.117.452.592.452 1.495zm10.328 2.71h-2.41V2.546h-2.18V.575h6.763v1.971h-2.173v6.952zm8.461 0V.575h2.41v6.976h3.437v1.947h-5.847zm17.573 0h-5.298V.575h5.298V2.51h-2.887v1.404h2.673v1.934h-2.673v1.685h2.887v1.965zm13.154-7.055v-.574h-3.906v.574h3.906zm.452 5.963v-.678h-4.81v.678h4.81zM125.156.38h1.691v.946h1.044V.38h1.648v.988h-.702v.88l-.562.915v3.57l.562.91v.873h.702v.995H122.5v-.995h.702v-.873l.568-.928h.006V3.17h-.006l-.568-.922v-.879h-.702V.38h1.618v.946h1.037V.38zm4.047 8.789v-.336h-6.36v.336h6.36z" font-weight="800" letter-spacing="5"/><path style="line-height:125%;-inkscape-font-specification:'Open Sans, Normal';text-align:start" d="M137.853.575h2.52q1.777 0 2.57.531.794.531.794 1.678 0 .794-.446 1.313-.44.512-1.288.665v.061q2.033.348 2.033 2.136 0 1.196-.812 1.868-.806.671-2.258.671h-3.113V.575zm1.038 3.82h1.709q1.098 0 1.58-.341.482-.348.482-1.166 0-.75-.537-1.08-.537-.336-1.709-.336h-1.525v2.924zm0 .88v3.338h1.861q1.08 0 1.624-.415.549-.42.549-1.312 0-.83-.562-1.22-.555-.391-1.696-.391h-1.776zm13.806-4.7v5.774q0 1.526-.922 2.399-.922.872-2.533.872-1.611 0-2.496-.879-.88-.878-.88-2.417V.575h1.038v5.823q0 1.117.61 1.715.611.598 1.795.598 1.13 0 1.74-.598.61-.604.61-1.727V.575h1.038zm2.368 8.923V.575h1.037v8.923h-1.037zm3.491 0V.575h1.038v7.983h3.936v.94h-4.974zm13.617-4.547q0 2.21-1.202 3.382-1.197 1.165-3.449 1.165h-2.472V.575h2.735q2.08 0 3.234 1.154 1.154 1.153 1.154 3.222zm-1.099.037q0-1.746-.879-2.63-.872-.886-2.6-.886h-1.507v7.13h1.263q1.856 0 2.79-.91.933-.916.933-2.704zm11.366 2.136q0 1.178-.855 1.837-.855.66-2.32.66-1.587 0-2.441-.41v-1q.55.231 1.196.366.647.134 1.282.134 1.037 0 1.562-.39.525-.397.525-1.1 0-.463-.189-.756-.183-.3-.622-.55-.434-.25-1.325-.567-1.245-.446-1.782-1.056-.531-.61-.531-1.593 0-1.032.775-1.642.775-.61 2.05-.61 1.331 0 2.448.488l-.323.903q-1.105-.463-2.149-.463-.824 0-1.287.354-.464.354-.464.982 0 .464.17.763.171.293.574.543.41.244 1.245.544 1.404.5 1.93 1.074.53.574.53 1.489zm4.095-2.087l2.38-4.462h1.123l-2.979 5.463v3.46h-1.05V6.086L183.038.575h1.135l2.363 4.462zm9.771 2.087q0 1.178-.854 1.837-.855.66-2.32.66-1.586 0-2.44-.41v-1q.548.231 1.195.366.647.134 1.282.134 1.038 0 1.563-.39.524-.397.524-1.1 0-.463-.189-.756-.183-.3-.622-.55-.434-.25-1.325-.567-1.245-.446-1.782-1.056-.531-.61-.531-1.593 0-1.032.775-1.642.775-.61 2.05-.61 1.332 0 2.448.488l-.323.903q-1.105-.463-2.148-.463-.824 0-1.288.354-.464.354-.464.982 0 .464.17.763.172.293.574.543.41.244 1.246.544 1.403.5 1.928 1.074.531.574.531 1.489zm4.572 2.374h-1.038V1.497h-2.826V.575h6.69v.922h-2.826v8.001zm9.137 0h-4.975V.575h4.975v.922h-3.937V4.37h3.699v.916h-3.699V8.57h3.937v.927zm5.932 0l-3.027-7.91h-.049q.086.94.086 2.234v5.676h-.959V.575h1.563l2.826 7.36h.049l2.85-7.36h1.55v8.923H219.8v-5.75q0-.988.085-2.148h-.049l-3.051 7.898h-.837z" letter-spacing="0"/></g></svg>