<svg xmlns="http://www.w3.org/2000/svg" xmlns:xlink="http://www.w3.org/1999/xlink" width="49.732" height="49.732" viewBox="0 0 46.624 46.624"><defs><linearGradient id="a"><stop offset="0" stop-color="#0099d3"/><stop offset="1" stop-color="#0ff"/></linearGradient><linearGradient xlink:href="#a" id="c" gradientUnits="userSpaceOnUse" x1="145.32" y1="452.037" x2="144.893" y2="424.09" gradientTransform="translate(425.089 102.71)"/><linearGradient xlink:href="#a" id="b" x1="572.401" y1="557.451" x2="571.974" y2="529.505" gradientUnits="userSpaceOnUse" gradientTransform="translate(-1.992 -2.705)"/></defs><path d="M46.624 23.312a23.312 23.312 0 0 1-23.312 23.312A23.312 23.312 0 0 1 0 23.312 23.312 23.312 0 0 1 23.312 0a23.312 23.312 0 0 1 23.312 23.312z"/><path d="M585.188 560.168h-27.52v-5.04l2.774-3.027v-1.972l3.32-3.711v-8.809l-3.73-2.52v-7.675h5.254v3.555h3.711v-3.555h4.883v3.555h3.71v-3.555h5.255v7.676l-3.73 2.52v8.808l3.32 3.71v1.973l2.753 3.028zm-3.476-25.88v-2.187h-20.547v2.188zm-.84 15.763l-2.11-2.364h-14.648l-2.11 2.364zm3.008 5.214l-2.559-2.773h-19.765l-2.559 2.773z" aria-label="♜" font-weight="400" font-family="sans-serif" letter-spacing="0" word-spacing="0" fill="url(#b)" stroke="url(#c)" stroke-width=".4" transform="translate(-548.117 -520.479)"/></svg>