<svg xmlns="http://www.w3.org/2000/svg" xmlns:xlink="http://www.w3.org/1999/xlink" width="48px" height="48px"><defs><linearGradient id="d"><stop offset="0" stop-color="#fffeff" stop-opacity=".333"/><stop offset="1" stop-color="#fffeff" stop-opacity=".216"/></linearGradient><linearGradient id="b"><stop offset="0" stop-color="#a40000"/><stop offset="1" stop-color="#ff1717"/></linearGradient><linearGradient id="c"><stop offset="0" stop-color="#ffe69b"/><stop offset="1" stop-color="#fff"/></linearGradient><linearGradient id="a"><stop offset="0"/><stop offset="1" stop-opacity="0"/></linearGradient><radialGradient xlink:href="#a" id="e" gradientUnits="userSpaceOnUse" gradientTransform="matrix(.90024 0 0 .22074 2.523 15.17)" cx="23.857" cy="40" fx="23.857" fy="40" r="17.143"/><linearGradient xlink:href="#b" id="f" gradientUnits="userSpaceOnUse" x1="36.918" y1="66.288" x2="19.071" y2="5.541"/><linearGradient xlink:href="#c" id="g" gradientUnits="userSpaceOnUse" x1="43.936" y1="53.836" x2="20.065" y2="-8.563"/><linearGradient xlink:href="#d" id="h" gradientUnits="userSpaceOnUse" x1="21.994" y1="33.955" x2="20.917" y2="15.815" gradientTransform="translate(3.981 10.662) scale(.84343)"/></defs><ellipse style="marker:none" cx="24" cy="24" rx="15.433" ry="3.784" color="#000" display="block" overflow="visible" opacity=".6" fill="url(#e)"/><g transform="translate(3.818 4.659) scale(.84091)"><circle transform="translate(2.369 .974) scale(.92049)" cx="23.5" cy="23.929" r="23.357" fill="url(#f)" stroke="#b20000" stroke-width="1.086"/><circle transform="translate(1.818 .198) scale(.8561)" cx="25.91" cy="26.635" r="23.991" opacity=".347" fill="none" stroke="url(#g)" stroke-width="1.168"/></g><path fill="#efefef" d="M12.227 20.636h23.545v6.727H12.227z"/><path d="M40.561 28.977c0 9.135-8.733-5.285-15.75.326-6.854 5.48-17.372 10.282-17.372 1.147 0-9.349 7.334-18.022 16.468-18.022 9.135 0 16.654 7.414 16.654 16.549z" fill="url(#h)"/></svg>