<svg xmlns="http://www.w3.org/2000/svg" xmlns:xlink="http://www.w3.org/1999/xlink" height="500" width="500"><defs><linearGradient id="a"><stop offset="0" stop-color="#0099d3"/><stop offset="1" stop-color="#0ff"/></linearGradient><linearGradient xlink:href="#a" id="c" x1="-1447.33" y1="721.398" x2="-645.891" y2="721.398" gradientUnits="userSpaceOnUse"/><linearGradient xlink:href="#a" id="b" gradientUnits="userSpaceOnUse" x1="250.069" y1="493.723" x2="256.234" y2="4.176" gradientTransform="matrix(.8461 0 0 .79661 9.06 101.273)"/></defs><circle cx="250" cy="250" r="249.597" fill="#666" stroke="#4d4d4d" stroke-width=".806"/><g style="line-height:125%"><path style="line-height:125%;-inkscape-font-specification:'Open Sans, Ultra-Bold';text-align:start" d="M58.873 102.926v42.754H91.09v38.02l26.113 39.88h.277v153.353h-.277L91.09 417.066v37.768H58.873v43.092h323.424v-43.092H350.08v-37.768l-25.844-39.373v-154.45L350.08 183.7v-38.107h32.217v-42.668h-75.74v40.894h-47.92v-40.894h-77.809v40.894h-47.652v-40.894zm72.15 64.383h179.483v24.84H131.023zm-20.82 253.474h221.031v29.32h-221.03zm-35.535 47.738h292.193v14.618H74.668z" font-weight="800" font-size="12.5" font-family="Open Sans" letter-spacing="5" word-spacing="0" fill="url(#b)" transform="matrix(.96251 0 0 .97082 37.683 -41.66)"/></g><path d="M-655.81 1138.674h-781.6V1010.28l78.771-77.135v-50.262l94.302-94.552V563.894l-105.951-64.197V304.123h149.22v90.571h105.395v-90.571h138.681v90.571h105.396v-90.571h149.22v195.574l-105.952 64.197v224.438l94.302 94.552v50.262l78.216 77.135zm-98.74-659.38v-55.736h-583.564v55.736zm-23.853 401.6l-59.91-60.215h-416.039l-59.91 60.215zm85.427 132.87l-72.669-70.665h-561.375l-72.668 70.666z" style="line-height:0%" font-weight="400" font-family="sans-serif" letter-spacing="0" word-spacing="0" fill="url(#c)" stroke="#4d4d4d" stroke-width="19.839" shape-rendering="crispEdges"/></svg>