<svg xmlns="http://www.w3.org/2000/svg" xmlns:xlink="http://www.w3.org/1999/xlink" width="250" height="250" viewBox="0 0 234.375 234.375"><defs><linearGradient id="a"><stop offset="0" stop-color="#0099d3"/><stop offset="1" stop-color="#0ff"/></linearGradient><linearGradient xlink:href="#a" id="b" gradientUnits="userSpaceOnUse" gradientTransform="matrix(4.84 0 0 4.84 -2658.17 -2527.852)" x1="572.401" y1="557.451" x2="571.974" y2="529.505"/><linearGradient xlink:href="#a" id="c" gradientUnits="userSpaceOnUse" gradientTransform="matrix(4.84 0 0 4.84 -591.098 -2017.644)" x1="145.32" y1="452.037" x2="144.893" y2="424.09"/></defs><path d="M233.747 117.188a116.56 116.56 0 0 1-116.56 116.56A116.56 116.56 0 0 1 .627 117.187 116.56 116.56 0 0 1 117.188.627a116.56 116.56 0 0 1 116.56 116.56z"/><path style="line-height:0%" d="M62.03 37.924v37.15l18.054 12.194v42.634l-16.07 17.961v9.547L50.59 172.063v24.388h133.195v-24.388l-13.33-14.653v-9.547l-16.07-17.96V87.267l18.056-12.194v-37.15h-25.43v17.203h-17.96V37.924h-23.633v17.203H87.457V37.924zm5.482 22.687h99.447v10.586H67.512zm14.273 75.436h70.899l10.209 11.437H71.576zM69.402 159.3h95.666l12.383 13.424H57.018z" font-weight="400" font-family="sans-serif" letter-spacing="0" word-spacing="0" fill="url(#b)" stroke="url(#c)" stroke-width="1.936"/></svg>